<svg width="821" height="205" viewBox="0 0 821 205" fill="none" xmlns="http://www.w3.org/2000/svg">
<path d="M76.7218 132.6H82.3918L95.3518 80.58H89.6818L91.0318 75.18H137.472L133.242 91.92H123.342L126.042 80.94H109.032L103.722 102.36H114.522L115.962 96.6H122.172L117.852 113.88H111.642L113.082 108.12H102.282L96.2518 132.24H114.072L117.222 119.46H127.122L122.532 138H75.3718L76.7218 132.6Z" fill="black"/>
<path d="M159.39 140.08C153.21 140.08 148.29 138.25 144.63 134.59C141.03 130.87 139.23 125.38 139.23 118.12C139.23 113.02 140.04 107.92 141.66 102.82C143.28 97.72 145.62 93.13 148.68 89.05C151.74 84.91 155.46 81.55 159.84 78.97C164.22 76.39 169.17 75.1 174.69 75.1C178.29 75.1 181.11 75.7 183.15 76.9C185.25 78.1 186.63 79.66 187.29 81.58H188.28L189.63 76.18H199.53L194.58 96.16H184.68L185.58 92.56C185.88 91.36 186.03 90.25 186.03 89.23C186.03 86.65 185.13 84.67 183.33 83.29C181.53 81.85 179.1 81.13 176.04 81.13C171.66 81.13 167.91 82.75 164.79 85.99C161.67 89.23 159.42 93.67 158.04 99.31C156.96 103.57 156.09 107.02 155.43 109.66C154.77 112.3 154.23 114.49 153.81 116.23C153.39 117.91 153.09 119.32 152.91 120.46C152.79 121.6 152.73 122.74 152.73 123.88C152.73 126.82 153.54 129.22 155.16 131.08C156.78 132.94 159.03 133.87 161.91 133.87C163.41 133.87 164.88 133.6 166.32 133.06C167.82 132.46 169.17 131.65 170.37 130.63C171.63 129.55 172.71 128.26 173.61 126.76C174.51 125.26 175.2 123.61 175.68 121.81L177.84 113.08H169.56L170.91 107.68H197.19L195.84 113.08H191.61L185.22 139H180.54L178.02 130.18H177.12C176.46 131.32 175.56 132.49 174.42 133.69C173.28 134.83 171.96 135.88 170.46 136.84C168.96 137.8 167.28 138.58 165.42 139.18C163.56 139.78 161.55 140.08 159.39 140.08Z" fill="black"/>
<path d="M136.602 47.5272L136.606 47.0272L136.602 47.5272C152.463 47.6584 157.181 47.8708 164.642 48.7819L164.703 48.2856L164.642 48.7819C182.492 50.9612 195.059 54.9307 203.415 61.3978C211.741 67.8425 215.944 76.8152 216.963 89.1619C217.535 96.0925 217.632 104.505 217.34 112.102C217.048 119.712 216.368 126.454 215.403 130.068C212.715 140.125 206.687 147.475 196.269 152.631C185.823 157.801 170.959 160.765 150.625 161.982C121.688 163.713 93.0619 161.028 76.9229 155.106C64.5307 150.56 56.0675 142.402 52.6378 131.797C49.9879 123.603 48.8681 108.716 49.8539 94.3597C50.9472 78.4398 54.8694 69.1331 63.2361 62.2311C73.0363 54.1464 86.7638 50.0916 112.529 47.8123C115.27 47.5699 126.097 47.44 136.602 47.5272ZM65.2463 65.5177L65.5808 65.8894L65.2463 65.5177C60.9313 69.4002 58.0757 73.3637 56.2364 78.79C54.4042 84.1952 53.5892 91.0269 53.3009 100.627C52.6316 122.935 55.5453 134.708 64.0978 143.245C72.1156 151.248 87.6525 156.229 109.793 158.063C119.728 158.886 148.183 158.886 158.118 158.063C172.362 156.883 183.645 154.504 192.145 150.818C200.652 147.129 206.398 142.12 209.51 135.675C213.003 128.443 213.907 120.518 213.557 101.221C213.323 88.2862 213.126 85.4141 212.161 81.4874L211.675 81.6068L212.161 81.4874C209.994 72.6735 205.483 66.1739 197.674 61.4483C189.894 56.74 178.869 53.8096 163.701 52.0414L163.643 52.538L163.701 52.0414C158.856 51.4768 151.08 51.1884 137.936 51.0812C116.87 50.9089 114.638 50.9756 104.478 52.0976L104.533 52.5946L104.478 52.0976C85.4049 54.2044 73.2382 58.3275 65.2463 65.5177Z" fill="black" stroke="black"/>
<path d="M258.042 138V73.784H300.362V84.548H270.186V100.096H296.866V110.86H270.186V127.236H300.362V138H258.042ZM312.47 138V89.976H324.246V99.912H324.706C325.013 98.624 325.473 97.3973 326.086 96.232C326.761 95.0053 327.619 93.932 328.662 93.012C329.705 92.092 330.931 91.356 332.342 90.804C333.814 90.252 335.501 89.976 337.402 89.976H339.978V101.108H336.298C332.311 101.108 329.306 101.691 327.282 102.856C325.258 104.021 324.246 105.923 324.246 108.56V138H312.47ZM390.392 142.048C390.392 144.563 389.932 146.771 389.012 148.672C388.153 150.635 386.712 152.26 384.688 153.548C382.664 154.836 380.057 155.817 376.868 156.492C373.679 157.167 369.784 157.504 365.184 157.504C361.136 157.504 357.701 157.228 354.88 156.676C352.059 156.185 349.728 155.449 347.888 154.468C346.109 153.548 344.821 152.383 344.024 150.972C343.227 149.561 342.828 147.967 342.828 146.188C342.828 143.489 343.564 141.373 345.036 139.84C346.569 138.368 348.685 137.417 351.384 136.988V135.976C349.421 135.485 347.888 134.535 346.784 133.124C345.741 131.652 345.22 129.935 345.22 127.972C345.22 126.745 345.465 125.672 345.956 124.752C346.447 123.771 347.091 122.943 347.888 122.268C348.747 121.593 349.697 121.041 350.74 120.612C351.783 120.121 352.887 119.753 354.052 119.508V119.14C351.108 117.791 348.9 115.92 347.428 113.528C346.017 111.136 345.312 108.345 345.312 105.156C345.312 100.249 346.999 96.324 350.372 93.38C353.745 90.3747 358.683 88.872 365.184 88.872C366.656 88.872 368.097 88.964 369.508 89.148C370.98 89.332 372.329 89.6387 373.556 90.068V88.504C373.556 83.8427 375.825 81.512 380.364 81.512H387.816V90.528H377.604V91.816C380.119 93.2267 381.989 95.0667 383.216 97.336C384.443 99.6053 385.056 102.212 385.056 105.156C385.056 110.001 383.369 113.896 379.996 116.84C376.684 119.784 371.747 121.256 365.184 121.256C362.363 121.256 359.909 120.98 357.824 120.428C356.904 120.857 356.107 121.44 355.432 122.176C354.757 122.851 354.42 123.709 354.42 124.752C354.42 127.144 356.505 128.34 360.676 128.34H373.556C379.444 128.34 383.707 129.567 386.344 132.02C389.043 134.412 390.392 137.755 390.392 142.048ZM379.352 143.428C379.352 141.895 378.739 140.699 377.512 139.84C376.285 138.981 374.169 138.552 371.164 138.552H354.788C353.132 139.779 352.304 141.435 352.304 143.52C352.304 145.36 353.071 146.801 354.604 147.844C356.137 148.887 358.744 149.408 362.424 149.408H368.312C372.176 149.408 374.967 148.917 376.684 147.936C378.463 146.955 379.352 145.452 379.352 143.428ZM365.184 113.252C370.949 113.252 373.832 110.799 373.832 105.892V104.328C373.832 99.4213 370.949 96.968 365.184 96.968C359.419 96.968 356.536 99.4213 356.536 104.328V105.892C356.536 110.799 359.419 113.252 365.184 113.252ZM432.341 138C429.765 138 427.71 137.264 426.177 135.792C424.705 134.259 423.785 132.235 423.417 129.72H422.865C422.068 132.848 420.442 135.209 417.989 136.804C415.536 138.337 412.5 139.104 408.881 139.104C403.974 139.104 400.202 137.816 397.565 135.24C394.928 132.664 393.609 129.229 393.609 124.936C393.609 119.968 395.388 116.288 398.945 113.896C402.502 111.443 407.562 110.216 414.125 110.216H422.313V106.72C422.313 104.021 421.608 101.936 420.197 100.464C418.786 98.992 416.517 98.256 413.389 98.256C410.629 98.256 408.39 98.8693 406.673 100.096C405.017 101.261 403.606 102.672 402.441 104.328L395.449 98.072C397.228 95.312 399.589 93.104 402.533 91.448C405.477 89.7307 409.372 88.872 414.217 88.872C420.718 88.872 425.656 90.344 429.029 93.288C432.402 96.232 434.089 100.464 434.089 105.984V128.616H438.873V138H432.341ZM412.837 130.548C415.474 130.548 417.713 129.965 419.553 128.8C421.393 127.635 422.313 125.917 422.313 123.648V117.3H414.769C408.636 117.3 405.569 119.263 405.569 123.188V124.752C405.569 126.715 406.182 128.187 407.409 129.168C408.697 130.088 410.506 130.548 412.837 130.548ZM464.136 139.104C459.536 139.104 455.672 138.337 452.544 136.804C449.416 135.209 446.656 133.032 444.264 130.272L451.44 123.28C453.218 125.304 455.15 126.899 457.236 128.064C459.382 129.229 461.836 129.812 464.596 129.812C467.417 129.812 469.441 129.321 470.668 128.34C471.956 127.359 472.6 126.009 472.6 124.292C472.6 122.881 472.14 121.777 471.22 120.98C470.361 120.121 468.858 119.539 466.712 119.232L461.928 118.588C456.714 117.913 452.728 116.441 449.968 114.172C447.269 111.841 445.92 108.468 445.92 104.052C445.92 101.721 446.349 99.636 447.208 97.796C448.066 95.8947 449.293 94.3 450.888 93.012C452.482 91.6627 454.384 90.6507 456.592 89.976C458.861 89.24 461.376 88.872 464.136 88.872C466.466 88.872 468.521 89.056 470.3 89.424C472.14 89.7307 473.796 90.2213 475.268 90.896C476.74 91.5093 478.089 92.3067 479.316 93.288C480.542 94.208 481.738 95.2507 482.904 96.416L476.004 103.316C474.593 101.844 472.906 100.617 470.944 99.636C468.981 98.6547 466.834 98.164 464.504 98.164C461.928 98.164 460.057 98.624 458.892 99.544C457.788 100.464 457.236 101.66 457.236 103.132C457.236 104.727 457.696 105.953 458.616 106.812C459.597 107.609 461.222 108.192 463.492 108.56L468.368 109.204C478.733 110.676 483.916 115.399 483.916 123.372C483.916 125.703 483.425 127.849 482.444 129.812C481.524 131.713 480.205 133.369 478.488 134.78C476.77 136.129 474.685 137.203 472.232 138C469.84 138.736 467.141 139.104 464.136 139.104ZM557.732 128.064H557.364C556.812 131.192 555.064 133.829 552.12 135.976C549.237 138.061 545.373 139.104 540.528 139.104C536.725 139.104 533.199 138.399 529.948 136.988C526.759 135.577 523.968 133.492 521.576 130.732C519.245 127.911 517.405 124.445 516.056 120.336C514.707 116.227 514.032 111.473 514.032 106.076C514.032 100.679 514.707 95.9253 516.056 91.816C517.467 87.6453 519.429 84.1493 521.944 81.328C524.459 78.5067 527.464 76.36 530.96 74.888C534.456 73.416 538.351 72.68 542.644 72.68C548.409 72.68 553.316 73.9373 557.364 76.452C561.412 78.9667 564.601 82.5853 566.932 87.308L557.088 93.104C555.923 90.344 554.175 88.044 551.844 86.204C549.575 84.364 546.508 83.444 542.644 83.444C537.86 83.444 534.027 84.916 531.144 87.86C528.323 90.7427 526.912 95.036 526.912 100.74V111.044C526.912 116.687 528.353 120.98 531.236 123.924C534.119 126.868 537.983 128.34 542.828 128.34C544.729 128.34 546.508 128.125 548.164 127.696C549.82 127.205 551.261 126.5 552.488 125.58C553.715 124.66 554.696 123.525 555.432 122.176C556.168 120.827 556.536 119.232 556.536 117.392V113.252H543.932V103.04H568.22V138H557.732V128.064ZM581.552 138V89.976H593.328V99.912H593.788C594.095 98.624 594.555 97.3973 595.168 96.232C595.843 95.0053 596.701 93.932 597.744 93.012C598.787 92.092 600.013 91.356 601.424 90.804C602.896 90.252 604.583 89.976 606.484 89.976H609.06V101.108H605.38C601.393 101.108 598.388 101.691 596.364 102.856C594.34 104.021 593.328 105.923 593.328 108.56V138H581.552ZM636.264 139.104C632.829 139.104 629.732 138.521 626.972 137.356C624.273 136.191 621.943 134.504 619.98 132.296C618.079 130.088 616.607 127.451 615.564 124.384C614.521 121.256 614 117.76 614 113.896C614 110.032 614.521 106.567 615.564 103.5C616.607 100.433 618.079 97.8267 619.98 95.68C621.943 93.472 624.273 91.7853 626.972 90.62C629.732 89.4547 632.829 88.872 636.264 88.872C639.699 88.872 642.796 89.4547 645.556 90.62C648.316 91.7853 650.647 93.472 652.548 95.68C654.511 97.8267 656.013 100.433 657.056 103.5C658.099 106.567 658.62 110.032 658.62 113.896C658.62 117.76 658.099 121.256 657.056 124.384C656.013 127.451 654.511 130.088 652.548 132.296C650.647 134.504 648.316 136.191 645.556 137.356C642.796 138.521 639.699 139.104 636.264 139.104ZM636.264 129.628C639.392 129.628 641.845 128.677 643.624 126.776C645.403 124.875 646.292 122.084 646.292 118.404V109.48C646.292 105.861 645.403 103.101 643.624 101.2C641.845 99.2987 639.392 98.348 636.264 98.348C633.197 98.348 630.775 99.2987 628.996 101.2C627.217 103.101 626.328 105.861 626.328 109.48V118.404C626.328 122.084 627.217 124.875 628.996 126.776C630.775 128.677 633.197 129.628 636.264 129.628ZM697.764 129.996H697.304C696.875 131.223 696.292 132.388 695.556 133.492C694.881 134.535 693.992 135.485 692.888 136.344C691.845 137.203 690.557 137.877 689.024 138.368C687.552 138.859 685.835 139.104 683.872 139.104C678.904 139.104 675.101 137.479 672.464 134.228C669.827 130.977 668.508 126.347 668.508 120.336V89.976H680.284V119.14C680.284 122.452 680.928 124.997 682.216 126.776C683.504 128.493 685.559 129.352 688.38 129.352C689.545 129.352 690.68 129.199 691.784 128.892C692.949 128.585 693.961 128.125 694.82 127.512C695.679 126.837 696.384 126.04 696.936 125.12C697.488 124.139 697.764 123.004 697.764 121.716V89.976H709.54V138H697.764V129.996ZM723.146 89.976H734.922V97.888H735.29C736.149 95.128 737.774 92.9507 740.166 91.356C742.558 89.7 745.349 88.872 748.538 88.872C754.671 88.872 759.333 91.0493 762.522 95.404C765.773 99.6973 767.398 105.861 767.398 113.896C767.398 121.992 765.773 128.217 762.522 132.572C759.333 136.927 754.671 139.104 748.538 139.104C745.349 139.104 742.558 138.276 740.166 136.62C737.835 134.964 736.21 132.756 735.29 129.996H734.922V156.4H723.146V89.976ZM744.766 129.352C747.833 129.352 750.317 128.34 752.218 126.316C754.119 124.292 755.07 121.563 755.07 118.128V109.848C755.07 106.413 754.119 103.684 752.218 101.66C750.317 99.5747 747.833 98.532 744.766 98.532C741.945 98.532 739.583 99.2373 737.682 100.648C735.842 102.059 734.922 103.929 734.922 106.26V121.532C734.922 124.047 735.842 125.979 737.682 127.328C739.583 128.677 741.945 129.352 744.766 129.352Z" fill="black"/>
<rect x="3.5" y="3.5" width="814" height="198" stroke="black" stroke-width="7"/>
</svg>
